HIERARCHY
ROOT hip
{
	OFFSET 0.000000 0.000000 0.000000 
	CHANNELS 6 Xposition Yposition Zposition Xrotation Zrotation Yrotation
	JOINT abdomen
	{
		OFFSET 0.000000 3.402643 0.000000 
		CHANNELS 3 Xrotation Zrotation Yrotation
		JOINT chest
		{
			OFFSET 0.000000 8.438565 -0.680529 
			CHANNELS 3 Xrotation Zrotation Yrotation
			JOINT neck
			{
				OFFSET 0.000000 10.207942 -0.272212 
				CHANNELS 3 Xrotation Zrotation Yrotation
				JOINT head
				{
					OFFSET 0.000000 3.130431 0.000000 
					CHANNELS 3 Xrotation Zrotation Yrotation
					End Site
					{
						OFFSET 0.000000 3.130435 0.000000 
					}
				}
			}
			JOINT lCollar
			{
				OFFSET 3.470700 6.669187 -0.816635 
				CHANNELS 3 Yrotation Zrotation Xrotation
				JOINT lShldr
				{
					OFFSET 3.198488 0.000000 0.000000 
					CHANNELS 3 Zrotation Yrotation Xrotation
					JOINT lForeArm
					{
						OFFSET 10.139888 0.000000 0.000000 
						CHANNELS 3 Yrotation Zrotation Xrotation
						JOINT lHand
						{
							OFFSET 8.370511 0.000000 0.000000 
							CHANNELS 3 Zrotation Yrotation Xrotation
							End Site
							{
								OFFSET 4.083176 0.000000 0.000000 
							}
						}
					}
				}
			}
			JOINT rCollar
			{
				OFFSET -3.470700 6.669187 -0.816635 
				CHANNELS 3 Yrotation Zrotation Xrotation
				JOINT rShldr
				{
					OFFSET -3.198488 0.000000 0.000000 
					CHANNELS 3 Zrotation Yrotation Xrotation
					JOINT rForeArm
					{
						OFFSET -10.139888 0.000000 0.000000 
						CHANNELS 3 Yrotation Zrotation Xrotation
						JOINT rHand
						{
							OFFSET -8.370511 0.000000 0.000000 
							CHANNELS 3 Zrotation Yrotation Xrotation
							End Site
							{
								OFFSET -4.083176 0.000000 0.000000 
							}
						}
					}
				}
			}
		}
	}
	JOINT lThigh
	{
		OFFSET 5.308129 -1.633274 1.361059 
		CHANNELS 3 Xrotation Zrotation Yrotation
		JOINT lShin
		{
			OFFSET -2.041588 -20.007561 0.000000 
			CHANNELS 3 Xrotation Zrotation Yrotation
			JOINT lFoot
			{
				OFFSET 0.000000 -19.190928 -1.224953 
				CHANNELS 3 Xrotation Yrotation Zrotation
				End Site
				{
					OFFSET 0.000000 -2.449906 4.627600 
				}
			}
		}
	}
	JOINT rThigh
	{
		OFFSET -5.308129 -1.633274 1.361059 
		CHANNELS 3 Xrotation Zrotation Yrotation
		JOINT rShin
		{
			OFFSET 2.041588 -20.007561 0.000000 
			CHANNELS 3 Xrotation Zrotation Yrotation
			JOINT rFoot
			{
				OFFSET 0.000000 -19.190928 -1.224953 
				CHANNELS 3 Xrotation Yrotation Zrotation
				End Site
				{
					OFFSET 0.000000 -2.449906 4.627600 
				}
			}
		}
	}
}
MOTION
Frames: 16
Frame Time: 0.033333
-62.459789 49.742268 -77.583649 -6.953125 5.419922 36.386711 35.395973 -3.159494 2.140721 -13.319739 1.162198 3.801559 -9.957986 -5.780571 2.208184 0.805369 -1.175913 1.452337 -7.587680 -7.733882 -0.000668 -74.428764 8.204546 -12.851541 -29.921936 4.243640 55.712982 -13.800958 18.342955 -4.421317 14.526110 -1.553797 -0.000697 68.655113 0.409976 8.626022 51.623535 -2.688796 31.355650 -8.244979 -4.086106 0.581222 -9.104856 -2.274389 -0.235831 20.945980 -1.493965 -1.986433 6.675716 3.928031 -12.584898 -1.317912 -8.702267 -4.739968 67.256035 -1.025504 4.017777 22.218706 8.043973 9.189404 
-61.301491 49.799278 -76.222343 -7.363281 5.312500 36.270435 35.614319 -3.157291 1.682644 -13.551201 1.788310 3.367041 -9.638815 -5.068827 2.417960 0.687003 -1.751848 1.843931 -7.576872 -7.289320 -0.008167 -74.513718 6.786042 -8.681875 -32.894024 4.085461 52.755741 -13.082209 18.394434 -4.190181 14.743053 -1.191441 0.000590 68.926529 -2.574588 10.030353 49.109184 -2.801089 32.724152 -5.879908 -4.127014 0.418749 -8.071928 -2.236008 -0.087229 24.392338 -1.372776 -2.221780 3.376520 4.039422 -12.341978 -6.599883 -8.112820 -3.824683 71.271103 -1.288711 4.080213 20.039070 5.834370 10.254542 
-60.233025 49.839401 -74.920670 -7.607422 5.195312 36.376953 35.943928 -3.254430 1.074585 -13.918229 2.707999 2.812444 -9.567111 -4.485467 2.630055 0.871503 -2.299094 2.193803 -7.579298 -7.131878 -0.007850 -74.173523 5.180420 -4.966810 -36.109768 3.955607 50.302486 -12.190951 18.582842 -3.944594 14.929844 -0.881310 -0.007528 69.277863 -5.476443 10.717849 46.012402 -2.873702 33.710636 -4.814215 -3.646519 0.301682 -6.950151 -2.284664 -0.082455 27.093456 -1.269351 -2.359017 0.720485 4.101488 -12.166055 -11.766959 -7.138366 -2.887098 73.404350 -1.435336 4.127333 17.789589 4.183856 10.981974 
-59.278694 49.855453 -73.670036 -7.519531 4.970703 36.807484 36.081631 -3.469946 0.313117 -14.196413 3.871384 2.162618 -9.810934 -3.975139 2.766835 1.300308 -2.827277 2.434104 -7.541137 -7.101562 -0.008734 -73.431091 3.182824 -1.507921 -39.475052 3.826625 48.194389 -10.971673 18.918020 -3.599871 15.038062 -0.658635 -0.005046 69.650337 -8.267482 10.444915 42.471069 -2.961565 34.794483 -4.907956 -3.218830 0.272557 -6.180517 -2.333832 -0.016830 29.488188 -1.171796 -2.517170 -1.359245 3.892755 -12.014264 -16.803236 -5.819378 -1.924923 72.995110 -1.406190 4.122876 15.546741 3.344033 11.355634 
-58.407124 49.851501 -72.437721 -7.207031 4.619141 37.491016 36.053066 -3.671718 -0.515527 -14.160888 5.238426 1.450433 -10.545983 -3.684239 2.952573 1.778633 -3.033257 2.644718 -7.424253 -7.129351 -0.007668 -72.580925 0.805918 0.912644 -43.037231 3.747391 46.864986 -10.362100 19.233740 -3.450779 15.067244 -0.689465 -0.006521 70.163811 -10.720144 9.021680 38.722008 -3.091001 36.572674 -5.138977 -2.819954 0.243348 -5.678757 -2.244790 -0.012896 31.648357 -1.074112 -2.631174 -2.871778 3.425123 -11.958364 -21.238705 -4.365298 -1.008210 69.799255 -1.187842 4.071561 14.036515 3.243213 11.458271 
-57.557720 49.815208 -71.181335 -6.816407 4.335938 38.398434 35.996159 -3.938133 -1.467680 -13.918324 6.917028 0.665402 -11.618552 -3.719769 3.087791 2.432934 -3.190685 2.717065 -7.168330 -7.342453 -0.003181 -71.849373 -1.738311 2.084093 -46.428349 3.687211 46.109383 -9.948610 19.469425 -3.344764 15.212614 -0.992680 -0.003243 70.486282 -13.101599 6.972031 35.245457 -3.254112 38.829945 -4.826006 -2.822103 0.233744 -5.184279 -2.177372 -0.174233 33.611729 -0.986338 -2.744978 -3.932948 2.862473 -11.927126 -24.453655 -3.143329 -0.255939 63.845318 -0.799817 3.949090 12.884581 3.176648 11.535462 
-56.667343 49.733044 -69.898712 -6.503906 4.355469 39.365234 36.268394 -4.175573 -2.412901 -13.872767 8.284021 -0.103883 -12.485185 -3.627513 3.160676 2.921403 -3.211052 2.761587 -7.023130 -7.320668 -0.001279 -71.360611 -3.925656 2.156069 -49.556629 3.659240 45.623840 -9.292606 19.621536 -3.148454 15.426791 -1.116041 -0.005985 70.629517 -15.664406 4.617627 32.440426 -3.412101 41.154026 -3.759361 -2.888241 0.184915 -4.373325 -2.323552 -0.691094 35.496883 -0.908112 -2.836003 -4.653572 2.447281 -11.953697 -26.001556 -2.411948 0.568356 55.250305 -0.224474 3.698327 12.048608 2.820593 11.636827 
-55.681515 49.595188 -68.572861 -6.279297 4.677734 40.127747 36.732292 -4.411105 -3.268970 -14.053761 9.378610 -0.801040 -12.589396 -3.666950 3.385832 2.677603 -2.946968 2.959089 -6.946846 -7.260143 -0.003415 -71.077675 -5.527658 1.482562 -52.440315 3.622208 45.221851 -8.984633 19.737667 -3.062221 15.747914 -1.310539 -0.005707 70.758156 -18.419037 2.563705 30.398888 -3.530811 42.942402 -2.447453 -2.953986 0.116926 -3.158794 -2.661841 -1.195927 37.302937 -0.820319 -2.937614 -5.217710 2.138899 -11.947226 -25.770088 -2.128816 1.532006 44.456398 0.413110 3.268241 11.420928 1.710501 11.872657 
-54.596279 49.430984 -67.184959 -5.986328 4.980468 40.547722 36.937775 -4.647117 -3.875458 -14.187453 10.131172 -1.290448 -12.298392 -3.581314 3.756757 2.150568 -2.653075 3.354398 -6.909917 -7.170552 -0.007067 -70.841827 -6.767011 0.526592 -54.835129 3.564449 44.361843 -8.232004 20.076420 -2.843681 15.766529 -1.471523 -0.000361 70.691315 -20.885168 1.501836 28.990566 -3.616238 44.266571 -1.428478 -2.635259 0.058514 -1.686353 -2.954246 -1.369918 38.864407 -0.742267 -3.028259 -5.588459 1.710615 -11.991128 -23.894436 -2.128831 2.752955 31.531893 1.049445 2.618821 11.484141 0.016898 12.185301 
-53.411034 49.230728 -65.707352 -5.673828 5.166016 40.674709 36.776669 -4.745838 -4.224241 -14.253669 10.649052 -1.594541 -12.635903 -3.387816 3.840875 2.970776 -2.898635 3.444794 -6.812715 -7.188788 -0.006830 -70.676109 -7.530105 -0.399290 -56.627804 3.510386 43.545837 -7.164257 20.309072 -2.502756 15.589664 -1.613698 -0.005716 70.379837 -23.035326 1.297662 28.019707 -3.653932 44.835609 -0.811791 -2.431226 0.029268 -0.117163 -3.087483 -1.336400 40.358223 -0.673748 -3.088093 -5.550179 1.091601 -12.065975 -20.320185 -2.353355 4.021039 16.780222 1.588376 1.694237 12.962669 -1.825150 12.587819 
-52.141468 48.983280 -64.136330 -5.341797 5.302735 40.634766 36.329620 -4.793315 -4.384125 -14.213239 10.912548 -1.759725 -12.168483 -3.133152 4.103156 2.345642 -2.829204 3.792108 -6.783188 -7.227576 -0.007810 -70.477966 -7.810168 -1.222061 -57.850315 3.502248 43.358978 -5.972809 20.199556 -2.070354 15.120994 -1.629903 -0.004394 69.976776 -24.749393 1.495215 27.461828 -3.671661 45.005802 -0.469153 -2.363201 0.009757 1.577716 -3.204661 -1.239059 41.783127 -0.606097 -3.153242 -5.127295 0.390343 -12.140264 -12.227417 -3.035739 3.955087 -4.616731 1.913036 0.201311 19.283066 -2.285242 13.023094 
-50.777283 48.757877 -62.435116 -5.292969 5.322266 40.615231 35.757858 -4.467931 -4.317417 -13.937783 11.116382 -1.832183 -12.250421 -2.782411 4.179365 2.345004 -3.190531 3.958072 -6.722894 -7.354790 -0.005789 -70.450508 -7.699820 -1.697396 -58.496445 3.474090 42.975685 -4.781161 20.501272 -1.682500 14.662358 -1.615423 -0.001035 69.630013 -26.008032 1.241007 27.204258 -3.676436 45.110115 -0.068359 -2.431641 0.000000 3.675651 -2.895850 -1.136606 42.885460 -0.537696 -3.210887 -3.829945 -0.612946 -12.222272 -12.836510 -2.645820 3.553927 -4.617163 1.914143 0.220788 17.708090 -2.733613 13.084122 
-49.284473 48.655476 -60.547897 -5.693359 5.146484 41.045795 34.933273 -3.407298 -4.191542 -13.251627 11.093627 -2.079868 -12.564456 -2.056649 4.189332 2.529393 -3.903745 4.141874 -6.828703 -7.386173 -0.003818 -70.672203 -7.049063 -2.220228 -58.464111 3.452411 42.610184 -4.030022 20.887880 -1.437411 14.254026 -1.340588 -0.001864 69.275436 -26.492006 0.649450 26.985615 -3.681968 45.186283 0.059003 -2.402333 -0.010165 6.267112 -1.757241 -1.238158 43.519299 -0.508308 -3.249938 -1.172818 -2.249867 -12.242362 -11.618755 -2.079763 2.625645 -4.617165 1.914141 0.220788 18.605297 -2.659428 13.111831 
-47.744705 48.747101 -58.533482 -6.669922 4.482422 41.914833 33.952065 -1.498181 -4.072912 -12.456201 11.343583 -2.649504 -12.555675 -1.509008 4.369792 2.489028 -4.636098 4.484672 -6.924664 -7.436976 -0.003080 -71.409775 -5.909736 -2.771259 -57.335270 3.432054 42.279301 -3.476737 21.231890 -1.265881 14.147615 -1.129792 -0.007188 68.894386 -26.201626 -0.204667 26.695604 -3.685768 45.313347 0.058993 -2.343740 -0.010155 8.790633 0.702665 -0.823602 43.978600 -0.468703 -3.247345 3.029478 -4.586928 -12.016883 -12.605724 -0.849152 0.989154 2.435267 1.859689 0.713885 17.100189 -2.055290 12.754532 
-46.269257 48.978016 -56.531162 -7.929688 3.466797 42.734966 33.072212 0.686734 -3.939087 -12.021219 11.995632 -3.302708 -11.980638 -1.191590 4.650564 2.253359 -5.270451 4.887100 -6.991070 -7.536263 -0.003413 -72.676460 -4.449365 -3.205218 -54.801704 3.455235 42.598789 -3.447580 21.399055 -1.256831 14.216698 -0.997143 0.000831 68.241852 -25.107235 -0.812725 26.396088 -3.687693 45.391018 0.215273 -2.519495 -0.010184 10.192081 3.983432 0.739229 45.344837 -0.400104 -3.295874 8.838110 -7.231317 -11.192744 -13.356791 0.674228 -0.759420 9.884222 1.754478 1.237736 14.476574 -1.083985 12.476291 
-44.940880 49.199707 -54.636398 -9.150391 2.695313 43.242191 32.769417 2.256998 -3.869719 -12.153755 12.865480 -3.832733 -11.037017 -0.883263 4.824125 2.017964 -5.729012 5.182101 -7.013285 -7.340050 -0.002438 -74.221718 -2.868440 -3.089370 -51.172760 3.532144 43.668674 -4.577569 21.407059 -1.671648 14.334361 -0.857425 -0.002606 67.790588 -23.387283 -1.484584 26.452271 -3.697134 45.548409 0.020034 -2.949215 -0.010254 9.737670 7.027009 2.926792 49.011623 -0.192607 -3.461204 14.906735 -8.621625 -10.103678 -12.906444 2.196355 -2.239687 15.167064 1.649110 1.577506 11.644633 -0.225089 12.246160 
